<svg
        width="32"
        height="32"
        viewBox="0 0 24 24"
        fill="none"
        xmlns="http://www.w3.org/2000/svg"
>
    <path
            fill="#2A4F35"
            d="m2.283 5.897 2.494 1.495a.746.746 0 0 0 1.04-.276L9.45.567a.382.382 0 0 0-.548-.501L2.245 4.63a.75.75 0 0 0 .038 1.261zM.75 8.048v5.794c0 .375.488.516.69.206l2.812-4.312a.75.75 0 0 0-.244-1.055L1.884 7.406a.75.75 0 0 0-1.134.642m13.8-7.48 3.637 6.543c.207.37.68.497 1.041.277l2.494-1.496a.75.75 0 0 0 .037-1.26L15.1.065a.382.382 0 0 0-.548.502m8.7 7.48a.75.75 0 0 0-1.134-.642L19.994 8.68a.754.754 0 0 0-.244 1.055l2.813 4.312c.201.315.689.17.689-.206zM20.94 19.58l-7.53.886a.746.746 0 0 0-.66.745v2.475a.32.32 0 0 0 .431.3l8.096-3a.726.726 0 0 0-.337-1.402zM10.93 24a.32.32 0 0 0 .319-.319v-2.465a.754.754 0 0 0-.66-.746l-7.53-.89a.726.726 0 0 0-.337 1.401l8.096 3a.3.3 0 0 0 .112.019m-8.976-6.052 8.01.947a.452.452 0 0 0 .446-.67l-4.017-7.031a.75.75 0 0 0-1.28-.038l-3.698 5.635a.752.752 0 0 0 .539 1.157m20.606-1.162-3.675-5.625a.75.75 0 0 0-1.28.037l-4.003 7.013a.45.45 0 0 0 .445.67l7.974-.937a.748.748 0 0 0 .539-1.153zm-10.167.516 3.675-6.432a.748.748 0 0 0-.652-1.12H8.583a.75.75 0 0 0-.652 1.12l3.675 6.432c.174.3.61.3.783 0zM8.175 8.25h7.65a.75.75 0 0 0 .656-1.116l-3.75-6.75A.75.75 0 0 0 12.075 0h-.15a.76.76 0 0 0-.656.384l-3.75 6.75a.75.75 0 0 0 .656 1.116"
    />
</svg>